<svg xmlns="http://www.w3.org/2000/svg" width="140" height="48" viewBox="0 0 140 48" role="img" aria-label="MongoDB">
<title>MongoDB</title>
<defs><linearGradient id="surface" x2="0" y2="1"><stop stop-color="#FFFFFF"/><stop offset="1" stop-color="#F7FAFD"/></linearGradient><linearGradient id="edge"><stop stop-color="#4DB33D" stop-opacity=".35"/><stop offset="1" stop-color="#4DB33D" stop-opacity=".04"/></linearGradient></defs>
<rect x=".5" y="2.5" width="131" height="39" rx="10" fill="url(#surface)" stroke="#c5ddcf"/>
<path d="M11 3H121" stroke="url(#edge)"/>
<rect x="7" y="6" width="34" height="32" rx="8" fill="#4DB33D" fill-opacity=".055"/>
<svg x="13" y="11" width="22" height="22" viewBox="0 0 24 24" fill="#449d3c"><path d="M17.193 9.555c-1.264-5.58-4.252-7.414-4.573-8.115-.28-.394-.53-.954-.735-1.44-.036.495-.055.685-.523 1.184-.723.566-4.438 3.682-4.74 10.02-.282 5.912 4.27 9.435 4.888 9.884l.07.05A73.49 73.49 0 0111.91 24h.481c.114-1.032.284-2.056.51-3.07.417-.296.604-.463.85-.693a11.342 11.342 0 003.639-8.464c.01-.814-.103-1.662-.197-2.218zm-5.336 8.195s0-8.291.275-8.29c.213 0 .49 10.695.49 10.695-.381-.045-.765-1.76-.765-2.405z" /></svg>
<text x="51" y="27" font-family="'Segoe UI',Arial,sans-serif" font-size="14" font-weight="600" fill="#182638">MongoDB</text>
</svg>