<svg xmlns="http://www.w3.org/2000/svg" width="119" height="48" viewBox="0 0 119 48" role="img" aria-label="Prisma">
<title>Prisma</title>
<defs><linearGradient id="surface" x2="0" y2="1"><stop stop-color="#FFFFFF"/><stop offset="1" stop-color="#F7FAFD"/></linearGradient><linearGradient id="edge"><stop stop-color="#91A5BA" stop-opacity=".35"/><stop offset="1" stop-color="#91A5BA" stop-opacity=".04"/></linearGradient></defs>
<rect x=".5" y="2.5" width="110" height="39" rx="10" fill="url(#surface)" stroke="#d1dae5"/>
<path d="M11 3H100" stroke="url(#edge)"/>
<rect x="7" y="6" width="34" height="32" rx="8" fill="#91A5BA" fill-opacity=".055"/>
<svg x="13" y="11" width="22" height="22" viewBox="0 0 24 24" fill="#7e92a6"><path d="M21.8068 18.2848L13.5528.7565c-.207-.4382-.639-.7273-1.1286-.7541-.5023-.0293-.9523.213-1.2062.6253L2.266 15.1271c-.2773.4518-.2718 1.0091.0158 1.4555l4.3759 6.7786c.2608.4046.7127.6388 1.1823.6388.1332 0 .267-.0188.3987-.0577l12.7019-3.7568c.3891-.1151.7072-.3904.8737-.7553s.1633-.7828-.0075-1.1454zm-1.8481.7519L9.1814 22.2242c-.3292.0975-.6448-.1873-.5756-.5194l3.8501-18.4386c.072-.3448.5486-.3996.699-.0803l7.1288 15.138c.1344.2856-.019.6224-.325.7128z" /></svg>
<text x="51" y="27" font-family="'Segoe UI',Arial,sans-serif" font-size="14" font-weight="600" fill="#182638">Prisma</text>
</svg>